<svg xmlns="http://www.w3.org/2000/svg" width="20" height="20" viewBox="0 0 20 20"><defs><style>.a{fill:#fff;}</style></defs><g transform="translate(0 0)"><path class="a" d="M10.933,20H9.067a1.248,1.248,0,0,1-1.238-1.1l-.2-1.563a7.875,7.875,0,0,1-1.145-.474l-1.245.967a1.243,1.243,0,0,1-1.654-.1L2.272,16.412a1.24,1.24,0,0,1-.1-1.649l.967-1.246a7.694,7.694,0,0,1-.474-1.145l-1.567-.2A1.251,1.251,0,0,1,0,10.933V9.067A1.248,1.248,0,0,1,1.1,7.828l1.563-.2a7.875,7.875,0,0,1,.474-1.145L2.171,5.239a1.242,1.242,0,0,1,.106-1.655L3.589,2.272a1.241,1.241,0,0,1,1.649-.1l1.245.968a7.847,7.847,0,0,1,1.146-.474l.2-1.567A1.248,1.248,0,0,1,9.067,0h1.867a1.248,1.248,0,0,1,1.238,1.1l.2,1.563a7.847,7.847,0,0,1,1.146.474l1.245-.967a1.242,1.242,0,0,1,1.654.106l1.313,1.312a1.24,1.24,0,0,1,.1,1.649l-.967,1.246a7.694,7.694,0,0,1,.474,1.145l1.567.2A1.249,1.249,0,0,1,20,9.067v1.867a1.248,1.248,0,0,1-1.1,1.238l-1.563.2a7.875,7.875,0,0,1-.474,1.145l.967,1.245a1.241,1.241,0,0,1-.106,1.654l-1.312,1.313a1.239,1.239,0,0,1-1.649.1l-1.246-.967a7.693,7.693,0,0,1-1.145.474l-.2,1.567A1.249,1.249,0,0,1,10.933,20ZM6.442,15.95a.422.422,0,0,1,.2.053,6.994,6.994,0,0,0,1.478.613.416.416,0,0,1,.3.347L8.655,18.8a.421.421,0,0,0,.412.37h1.867a.42.42,0,0,0,.411-.366l.234-1.837a.416.416,0,0,1,.3-.347A6.994,6.994,0,0,0,13.355,16a.416.416,0,0,1,.458.035l1.458,1.133a.41.41,0,0,0,.546-.028l1.321-1.321a.412.412,0,0,0,.032-.55l-1.133-1.458A.416.416,0,0,1,16,13.356a6.994,6.994,0,0,0,.613-1.478.416.416,0,0,1,.347-.3l1.833-.233a.423.423,0,0,0,.37-.412V9.067a.42.42,0,0,0-.366-.411l-1.837-.234a.416.416,0,0,1-.347-.3A6.994,6.994,0,0,0,16,6.645a.414.414,0,0,1,.035-.458l1.133-1.458a.409.409,0,0,0-.028-.545L15.823,2.863a.41.41,0,0,0-.55-.033L13.815,3.963A.417.417,0,0,1,13.356,4a6.966,6.966,0,0,0-1.478-.613.416.416,0,0,1-.3-.347L11.346,1.2a.423.423,0,0,0-.412-.371H9.067a.42.42,0,0,0-.411.366L8.422,3.036a.418.418,0,0,1-.3.348A6.963,6.963,0,0,0,6.645,4a.417.417,0,0,1-.459-.034L4.727,2.829a.409.409,0,0,0-.545.028L2.862,4.178a.412.412,0,0,0-.033.55L3.962,6.187A.416.416,0,0,1,4,6.645a6.951,6.951,0,0,0-.613,1.478.416.416,0,0,1-.348.3L1.2,8.655a.421.421,0,0,0-.37.412v1.867a.42.42,0,0,0,.366.411l1.837.234a.416.416,0,0,1,.347.3A6.994,6.994,0,0,0,4,13.355a.414.414,0,0,1-.035.458L2.828,15.272a.409.409,0,0,0,.027.545l1.321,1.321a.412.412,0,0,0,.55.032l1.458-1.133a.429.429,0,0,1,.257-.087Z" transform="translate(0 0)"/></g><g transform="translate(5 5)"><path class="a" d="M12,17a5,5,0,1,1,5-5A5.006,5.006,0,0,1,12,17Zm0-9a4,4,0,1,0,4,4A4,4,0,0,0,12,8Z" transform="translate(-7 -7)"/></g></svg>