<svg xmlns="http://www.w3.org/2000/svg" width="16.686" height="20" viewBox="0 0 16.686 20"><defs><style>.a{fill:#fff;}</style></defs><path class="a" d="M91.728,9.965A4.417,4.417,0,0,0,95.048,8.5a4.973,4.973,0,0,0,1.376-3.523,4.973,4.973,0,0,0-1.376-3.523,4.507,4.507,0,0,0-6.641,0,4.973,4.973,0,0,0-1.376,3.523A4.973,4.973,0,0,0,88.407,8.5,4.418,4.418,0,0,0,91.728,9.965ZM89.215,2.317a3.41,3.41,0,0,1,5.025,0,3.715,3.715,0,0,1,1.041,2.665A3.715,3.715,0,0,1,94.24,7.648a3.41,3.41,0,0,1-5.025,0,3.714,3.714,0,0,1-1.041-2.666A3.715,3.715,0,0,1,89.215,2.317Zm0,0" transform="translate(-83.515)"/><path class="a" d="M16.646,253.231a12.708,12.708,0,0,0-.162-1.307,10.591,10.591,0,0,0-.311-1.314,6.607,6.607,0,0,0-.522-1.226,4.606,4.606,0,0,0-.788-1.062,3.459,3.459,0,0,0-1.131-.735,3.8,3.8,0,0,0-1.444-.27,1.439,1.439,0,0,0-.783.343c-.235.158-.509.341-.816.544a4.6,4.6,0,0,1-1.055.481,3.969,3.969,0,0,1-2.581,0A4.583,4.583,0,0,1,6,248.2c-.3-.2-.578-.384-.816-.544a1.438,1.438,0,0,0-.783-.343,3.791,3.791,0,0,0-1.444.271,3.456,3.456,0,0,0-1.132.735,4.607,4.607,0,0,0-.787,1.061,6.62,6.62,0,0,0-.522,1.226A10.615,10.615,0,0,0,.2,251.924a12.621,12.621,0,0,0-.162,1.308c-.027.4-.04.806-.04,1.222a3.5,3.5,0,0,0,.986,2.6,3.483,3.483,0,0,0,2.542.959h9.63a3.342,3.342,0,0,0,3.528-3.558C16.686,254.036,16.672,253.625,16.646,253.231Zm-1.754,2.942a2.343,2.343,0,0,1-1.734.625H3.528a2.344,2.344,0,0,1-1.734-.625,2.286,2.286,0,0,1-.622-1.721c0-.388.012-.77.037-1.138a11.383,11.383,0,0,1,.146-1.177,9.363,9.363,0,0,1,.273-1.159,5.39,5.39,0,0,1,.425-1,3.415,3.415,0,0,1,.579-.785,2.293,2.293,0,0,1,.753-.484,2.619,2.619,0,0,1,.923-.184c.041.023.114.066.233.146.241.162.519.348.826.55a5.714,5.714,0,0,0,1.325.612,5.1,5.1,0,0,0,3.3,0,5.721,5.721,0,0,0,1.325-.613c.314-.208.584-.388.825-.55.118-.08.191-.123.233-.146a2.62,2.62,0,0,1,.923.184,2.3,2.3,0,0,1,.753.484,3.406,3.406,0,0,1,.579.785,5.371,5.371,0,0,1,.425,1,9.341,9.341,0,0,1,.273,1.159,11.478,11.478,0,0,1,.146,1.177h0c.025.366.037.749.038,1.137A2.286,2.286,0,0,1,14.892,256.173Zm0,0" transform="translate(0 -238.01)"/></svg>